<svg width="17" height="15" viewBox="0 0 17 15" fill="none" xmlns="http://www.w3.org/2000/svg">
<path d="M14.9091 2.09509H1.89204C1.39938 2.09509 1 2.49042 1 2.97808V13.5659C1 14.0536 1.39938 14.4489 1.89204 14.4489H14.9091C15.4017 14.4489 15.8011 14.0536 15.8011 13.5659V2.97808C15.8011 2.49042 15.4017 2.09509 14.9091 2.09509Z" stroke="#8C8FA0" stroke-width="0.85459" stroke-miterlimit="10"/>
<path d="M4.7002 0.551147V3.6396" stroke="#8C8FA0" stroke-width="0.85459" stroke-linecap="round" stroke-linejoin="round"/>
<path d="M15.8011 5.18378H1" stroke="#8C8FA0" stroke-width="0.85459" stroke-miterlimit="10"/>
<path d="M12.2784 0.551147V3.6396" stroke="#8C8FA0" stroke-width="0.85459" stroke-linecap="round" stroke-linejoin="round"/>
<path d="M4.52414 10.6744C5.10803 10.6744 5.58137 10.2135 5.58137 9.64496C5.58137 9.07639 5.10803 8.61548 4.52414 8.61548C3.94025 8.61548 3.46692 9.07639 3.46692 9.64496C3.46692 10.2135 3.94025 10.6744 4.52414 10.6744Z" stroke="#8C8FA0" stroke-width="0.85459" stroke-miterlimit="10"/>
<path d="M8.39817 10.6744C8.98205 10.6744 9.45539 10.2135 9.45539 9.64496C9.45539 9.07639 8.98205 8.61548 8.39817 8.61548C7.81428 8.61548 7.34094 9.07639 7.34094 9.64496C7.34094 10.2135 7.81428 10.6744 8.39817 10.6744Z" stroke="#8C8FA0" stroke-width="0.85459" stroke-miterlimit="10"/>
<path d="M12.3676 10.6744C12.9028 10.6744 13.3367 10.2135 13.3367 9.64496C13.3367 9.07639 12.9028 8.61548 12.3676 8.61548C11.8323 8.61548 11.3984 9.07639 11.3984 9.64496C11.3984 10.2135 11.8323 10.6744 12.3676 10.6744Z" stroke="#8C8FA0" stroke-width="0.85459" stroke-miterlimit="10"/>
</svg>
