<svg width="12" height="17" viewBox="0 0 12 17" fill="none" xmlns="http://www.w3.org/2000/svg">
<path d="M11.0381 4.63369C10.7148 3.50896 10.0485 2.52615 9.14121 1.8356C8.23394 1.14505 7.13564 0.784792 6.01434 0.809949C4.89303 0.835107 3.81047 1.24429 2.93227 1.9749C2.05407 2.7055 1.42858 3.7173 1.1515 4.85551C1.06604 5.17683 1.01524 5.50718 1.00006 5.84036C1.00006 5.93574 1.00006 6.03112 1.00006 6.1254C1.00006 6.14425 1.00006 6.1631 1.00006 6.18196C0.996194 7.01849 1.17973 7.84431 1.53591 8.59308C1.667 8.88797 1.81628 9.1736 1.9828 9.44818C3.31287 11.6508 4.66837 13.839 6.01434 16.0327C6.04399 16.0815 6.07999 16.1281 6.12023 16.1913C6.15518 16.1436 6.17954 16.1148 6.19966 16.0804C7.57633 13.8412 8.953 11.6042 10.317 9.35945C10.5472 8.98177 10.7392 8.57996 10.8899 8.16054C11.0994 7.60475 11.2189 7.01627 11.2436 6.4193C11.2848 5.81582 11.215 5.20965 11.0381 4.63369ZM6.12446 9.6711C5.46524 9.67132 4.82077 9.46678 4.27257 9.08335C3.72436 8.69992 3.29705 8.15483 3.04468 7.51702C2.79231 6.87922 2.72623 6.17735 2.85479 5.50021C2.98334 4.82306 3.30076 4.20106 3.7669 3.71287C4.23304 3.22468 4.82695 2.89225 5.47351 2.75761C6.12007 2.62297 6.79023 2.69218 7.39923 2.95649C8.00823 3.2208 8.5287 3.66832 8.89481 4.24246C9.26092 4.8166 9.45623 5.49156 9.45602 6.18196C9.45574 7.10725 9.10464 7.99455 8.47992 8.64883C7.85519 9.3031 7.00796 9.6708 6.12446 9.6711Z" stroke="#8C8FA0" stroke-width="0.85459" stroke-linecap="round" stroke-linejoin="round"/>
</svg>
